Coordinates
version=1
nRows=17
nColumns=38
inDegrees=no

Units are S.I. units (second, meters, Newtons, ...)
If the header above contains a line with 'inDegrees', this indicates whether rotational values are in degrees (yes) or radians (no).

endheader
time	pelvis_tilt	pelvis_list	pelvis_rotation	pelvis_tx	pelvis_ty	pelvis_tz	hip_flexion_r	hip_adduction_r	hip_rotation_r	knee_angle_r	ankle_angle_r	subtalar_angle_r	mtp_angle_r	hip_flexion_l	hip_adduction_l	hip_rotation_l	knee_angle_l	ankle_angle_l	subtalar_angle_l	mtp_angle_l	lumbar_extension	lumbar_bending	lumbar_rotation	arm_flex_r	arm_add_r	arm_rot_r	elbow_flex_r	pro_sup_r	wrist_flex_r	wrist_dev_r	arm_flex_l	arm_add_l	arm_rot_l	elbow_flex_l	pro_sup_l	wrist_flex_l	wrist_dev_l
0.55	0.570106	1.50542	-2.17282	0.984702	0.65231	0.934533	-0.19724	0.00709198	-0.147002	0.0878099	0.196353	0	0	0.401891	-0.0816008	-0.317969	0.486115	0.180312	0	0	-0.25079	-0.0486202	-0.0598769	-0.163157	-0.254795	0.162304	0.686045	0.367493	0	0	-0.15372	-0.319192	0.444097	0.7273	1.26541	0	0
0.56	0.615605	1.50561	-2.21618	0.985342	0.643233	0.932686	-0.209719	0.00438541	-0.149979	0.0824669	0.204842	0	0	0.396286	-0.0653998	-0.320784	0.404733	0.174305	0	0	-0.251627	-0.0515678	-0.0635569	-0.158413	-0.254036	0.159203	0.686801	0.370853	0	0	-0.149842	-0.318318	0.444056	0.723057	1.27212	0	0
0.57	0.667848	1.50638	-2.26593	0.986201	0.634133	0.930639	-0.22036	0.00130002	-0.154904	0.0790912	0.214572	0	0	0.388364	-0.046687	-0.312333	0.31763	0.163882	0	0	-0.251639	-0.054093	-0.0673579	-0.154548	-0.253871	0.156052	0.688687	0.374373	0	0	-0.145237	-0.316715	0.442981	0.717285	1.28142	0	0
0.58	0.711553	1.50899	-2.30623	0.987158	0.624978	0.928307	-0.229153	0.000257195	-0.160541	0.0773163	0.224622	0	0	0.380855	-0.029594	-0.293012	0.232321	0.153033	0	0	-0.250245	-0.0546918	-0.0716506	-0.151066	-0.253997	0.153901	0.690322	0.377706	0	0	-0.140675	-0.314761	0.440426	0.711064	1.29488	0	0
0.59	0.764719	1.5121	-2.35595	0.988187	0.615451	0.925935	-0.237301	-0.000518824	-0.166974	0.076462	0.234651	0	0	0.369273	-0.0122371	-0.259446	0.141804	0.134274	0	0	-0.248217	-0.0532748	-0.0796748	-0.145918	-0.25495	0.154954	0.691601	0.385041	0	0	-0.134449	-0.286334	0.185707	0.709775	0.465423	0	0
0.6	0.750864	1.51325	-2.33928	0.988982	0.605967	0.923568	-0.249579	0.000613355	-0.172583	0.0764279	0.244869	0	0	0.353362	0.000104646	-0.221787	0.0585958	0.11399	0	0	-0.249144	-0.0546353	-0.0788182	-0.146166	-0.25371	0.148987	0.693	0.388006	0	0	-0.132173	-0.309759	0.426511	0.697929	1.3417	0	0
0.61	0.742764	1.51703	-2.33027	0.989406	0.595969	0.921011	-0.258745	0.00308776	-0.175604	0.078409	0.254647	0	0	0.343167	0.00605453	-0.191526	0	0.0972757	0	0	-0.247005	-0.053375	-0.0793559	-0.145284	-0.253479	0.147993	0.69376	0.38852	0	0	-0.128819	-0.308808	0.423203	0.692774	1.34939	0	0
0.62	0.677274	1.51627	-2.26248	0.98956	0.586449	0.91881	-0.271997	0.00684439	-0.175683	0.082781	0.262267	0	0	0.354587	0.00563362	-0.185996	0	0.0993533	0	0	-0.251762	-0.0540379	-0.0800671	-0.143606	-0.251891	0.146919	0.693554	0.389081	0	0	-0.12377	-0.309954	0.422434	0.68735	1.35835	0	0
0.63	0.626957	1.51589	-2.21201	0.989652	0.576393	0.916683	-0.28313	0.00817991	-0.179795	0.0902678	0.272074	0	0	0.360367	0.00594037	-0.180336	0	0.101214	0	0	-0.254474	-0.0552989	-0.0795199	-0.142088	-0.249864	0.145508	0.691758	0.389963	0	0	-0.119811	-0.310771	0.419364	0.682092	1.36822	0	0
0.64	0.580463	1.51375	-2.16817	0.989579	0.566063	0.914841	-0.293211	0.00712256	-0.184483	0.102705	0.283205	0	0	0.36113	0.00664316	-0.176647	0	0.102278	0	0	-0.258117	-0.058256	-0.0765137	-0.14066	-0.247782	0.144123	0.689688	0.391153	0	0	-0.115822	-0.311392	0.414639	0.677075	1.37716	0	0
0.65	0.550013	1.51004	-2.14309	0.989261	0.555211	0.913242	-0.30293	0.00336306	-0.189312	0.118269	0.294498	0	0	0.357053	0.00783375	-0.174523	0	0.102459	0	0	-0.261505	-0.0635119	-0.0713485	-0.139843	-0.245458	0.143154	0.686911	0.392863	0	0	-0.112895	-0.312336	0.409509	0.672015	1.38508	0	0
0.66	0.531406	1.50593	-2.12991	0.98894	0.543859	0.911766	-0.312002	-0.00154985	-0.195547	0.136046	0.305115	0	0	0.349554	0.00976051	-0.169764	0	0.102421	0	0	-0.263882	-0.0696234	-0.0664516	-0.13978	-0.242887	0.14253	0.683384	0.394302	0	0	-0.111398	-0.313651	0.402114	0.668736	1.38909	0	0
0.67	0.516524	1.50214	-2.12225	0.988572	0.532037	0.910431	-0.320829	-0.00959029	-0.205012	0.155002	0.316423	0	0	0.341278	0.0109262	-0.166486	0.00575288	0.105137	0	0	-0.264723	-0.0759518	-0.0604856	-0.140225	-0.240473	0.142634	0.679129	0.394726	0	0	-0.111572	-0.314931	0.393882	0.666152	1.38983	0	0
0.68	0.495833	1.49804	-2.10658	0.988303	0.520555	0.909073	-0.327011	-0.0155853	-0.212205	0.179776	0.325995	0	0	0.352672	0.00787298	-0.182401	0.0648664	0.123993	0	0	-0.266556	-0.0819845	-0.0551988	-0.140986	-0.238082	0.143585	0.674668	0.394748	0	0	-0.11116	-0.31642	0.384918	0.66344	1.38881	0	0
0.69	0.478297	1.49803	-2.0939	0.988041	0.508594	0.90738	-0.329042	-0.0196038	-0.216797	0.205755	0.333346	0	0	0.369762	0.0010915	-0.203049	0.132446	0.147528	0	0	-0.262656	-0.0859467	-0.0491232	-0.143675	-0.236004	0.145077	0.669443	0.393544	0	0	-0.112594	-0.317478	0.375155	0.661635	1.38105	0	0
0.7	0.463246	1.4964	-2.08529	0.987805	0.496085	0.905958	-0.331988	-0.0258042	-0.218688	0.233137	0.337929	0	0	0.377914	-0.00378379	-0.217863	0.184434	0.165003	0	0	-0.258695	-0.0909376	-0.0416008	-0.147416	-0.234382	0.146878	0.664082	0.391381	0	0	-0.115337	-0.318563	0.36659	0.660358	1.3709	0	0
0.71	0.470922	1.49349	-2.09921	0.987879	0.483273	0.904832	-0.334256	-0.0352197	-0.220193	0.262646	0.339575	0	0	0.37771	-0.00326462	-0.224064	0.214787	0.170446	0	0	-0.254322	-0.0977039	-0.0347254	-0.151318	-0.232506	0.147599	0.657788	0.38993	0	0	-0.118767	-0.319535	0.358261	0.659083	1.36376	0	0
